<svg xmlns="http://www.w3.org/2000/svg" width="17" height="17" viewBox="0 0 17 17">
  <g id="download" transform="translate(-300 -188)">
    <path id="Vector" d="M.531,5.313A.534.534,0,0,1,.326,5.27.525.525,0,0,1,0,4.781V.531A.535.535,0,0,1,.531,0a.535.535,0,0,1,.531.531V3.5l.51-.51a.531.531,0,1,1,.751.751L.907,5.157A.543.543,0,0,1,.531,5.313Z" transform="translate(305.844 195.26)" fill="#464646"/>
    <path id="Vector-2" data-name="Vector" d="M1.946,2.477a.525.525,0,0,1-.375-.156L.154.9A.531.531,0,0,1,.9.154L2.322,1.571a.534.534,0,0,1,0,.751A.525.525,0,0,1,1.946,2.477Z" transform="translate(304.429 198.096)" fill="#464646"/>
    <path id="Vector-3" data-name="Vector" d="M9.74,15.229H5.49C1.643,15.229,0,13.586,0,9.74V5.49C0,1.643,1.643,0,5.49,0H9.031a.535.535,0,0,1,.531.531.535.535,0,0,1-.531.531H5.49c-3.265,0-4.427,1.162-4.427,4.427V9.74c0,3.265,1.162,4.427,4.427,4.427H9.74c3.265,0,4.427-1.162,4.427-4.427V6.2a.531.531,0,1,1,1.063,0V9.74C15.229,13.586,13.586,15.229,9.74,15.229Z" transform="translate(300.885 188.885)" fill="#464646"/>
    <path id="Vector-4" data-name="Vector" d="M6.2,6.728H3.365C.942,6.728,0,5.786,0,3.364V.53A.525.525,0,0,1,.326.041.536.536,0,0,1,.907.155L6.573,5.821a.532.532,0,0,1-.375.907ZM1.063,1.812V3.364c0,1.828.475,2.3,2.3,2.3H4.916Z" transform="translate(309.385 188.886)" fill="#464646"/>
    <path id="Vector-5" data-name="Vector" d="M0,0H17V17H0Z" transform="translate(300 188)" fill="none" opacity="0"/>
  </g>
</svg>
