<svg xmlns="http://www.w3.org/2000/svg" width="50" height="29.59" viewBox="0 0 50 29.59">
  <g id="drive_count" transform="translate(194.001 -6.465)">
    <path id="Path_6416" data-name="Path 6416" d="M-158.356,6.76c4.335,1.006,5.993,3.541,8.072,7.03h-8.072Zm-25.334,7.323a1.286,1.286,0,0,1,1.465,1.367,1.465,1.465,0,0,1-1.461,1.465h-8.85A1.465,1.465,0,0,0-194,18.379a1.465,1.465,0,0,0,1.465,1.465h13.184a1.465,1.465,0,0,1,1.471,1.465,1.465,1.465,0,0,1-1.465,1.465h-13.189A1.465,1.465,0,0,0-194,24.238a1.465,1.465,0,0,0,1.465,1.465h3.223V30.1a1.465,1.465,0,0,0,1.465,1.465h2.945a5.618,5.618,0,0,0,5.5,4.492,5.618,5.618,0,0,0,5.5-4.492h14.873a5.618,5.618,0,0,0,5.5,4.492,5.618,5.618,0,0,0,5.5-4.492h2.554A1.465,1.465,0,0,0-144,30.1V21.309c0-4.3-4.533-4.583-4.538-4.59h-11.283a1.465,1.465,0,0,1-1.465-1.465V6.465h-26.562a1.465,1.465,0,0,0-1.465,1.465v3.223h-1.758a1.465,1.465,0,0,0-1.465,1.465,1.465,1.465,0,0,0,1.465,1.465Zm32.067,14.458a2.686,2.686,0,0,1,0,3.8,2.689,2.689,0,0,1-4.584-1.9,2.688,2.688,0,0,1,4.584-1.9Zm-25.879,0a2.686,2.686,0,0,1,0,3.8,2.689,2.689,0,0,1-4.584-1.9,2.688,2.688,0,0,1,4.584-1.9Zm0,0" fill="#464646" fill-rule="evenodd"/>
  </g>
</svg>
