<svg id="MainLogo" xmlns="http://www.w3.org/2000/svg" width="133.031" height="114.161" viewBox="0 0 133.031 114.161">
  <g id="Group_16204" data-name="Group 16204" transform="translate(14.519 74.069)" opacity="0.3">
    <path id="Path_11600" data-name="Path 11600" d="M281.713,351.72H335.6l2.87-6.879-59.366.622Z" transform="translate(-278.334 -316.446)" fill="#fca939" opacity="0.7"/>
    <path id="Path_11601" data-name="Path 11601" d="M278.536,352.3c0-15.682,13.22-28.395,29.528-28.395S337.59,336.621,337.59,352.3Z" transform="translate(-278.536 -323.908)" fill="#fca939" opacity="0.7"/>
  </g>
  <g id="Group_16205" data-name="Group 16205" transform="translate(0 0)">
    <path id="Path_11602" data-name="Path 11602" d="M353.028,298.354h.022l.584-.039-.042.616a.411.411,0,0,0,.41.438h1.124a.412.412,0,0,0,.411-.411c0-.019-.053-.769-.053-.769l4.188-.285a.33.33,0,0,0,0-.658l-4.272-.292-.427-6.255a.41.41,0,0,0-.818,0l-.419,6.141-.684-.046a.326.326,0,0,0-.247.088.33.33,0,0,0-.1.24v.9a.333.333,0,0,0,.1.241A.329.329,0,0,0,353.028,298.354Z" transform="translate(-237.539 -261.813)" fill="#ffcb05"/>
    <path id="Path_11603" data-name="Path 11603" d="M282.493,333.55a35.119,35.119,0,0,1-5.716-10.249,32.684,32.684,0,0,1-1.514-7.961v-.821h98.31a16.376,16.376,0,0,0,5.123,3.631,14.947,14.947,0,0,0,6.276,1.332,15.6,15.6,0,0,0,6.066-1.2,16.584,16.584,0,0,0,5.073-3.293,15.572,15.572,0,0,0,3.477-4.939,14.909,14.909,0,0,0,1.281-6.195,16.167,16.167,0,0,0-1.229-6.324,15.408,15.408,0,0,0-3.4-5.07,16.007,16.007,0,0,0-5.073-3.371,15.72,15.72,0,0,0-6.195-1.228,14.984,14.984,0,0,0-6.093,1.252,15.715,15.715,0,0,0-4.968,3.426,16.222,16.222,0,0,0-3.348,5.068,15.867,15.867,0,0,0-1.228,6.246c0,.594.027,1.168.08,1.725a10.012,10.012,0,0,0,.285,1.621h-9.726v-5.072a24.867,24.867,0,0,0-.679-5.985,9.912,9.912,0,0,0-2.353-4.52,11.486,11.486,0,0,0-4.655-3.007,19.255,19.255,0,0,0-6.222-.916H330.115V272.127H319.872v6.6H322.8V307.2H313.07V285.089h-9.758v6.6h2.437V307.2H295.132q.314-1.673.5-3.4a33.492,33.492,0,0,0,.183-3.5,17.752,17.752,0,0,0-1.308-7.031,16.149,16.149,0,0,0-3.4-5.148,12.8,12.8,0,0,0-4.523-2.98A15.825,15.825,0,0,0,280.7,284.1a20.275,20.275,0,0,0-6.12.887,27.571,27.571,0,0,0-5.386,2.352l3.033,6.378a14.69,14.69,0,0,1,3.766-1.8,13.835,13.835,0,0,1,3.817-.5,9,9,0,0,1,6.169,1.986,6.839,6.839,0,0,1,1.962,2.957,10.339,10.339,0,0,1,.6,3.369,32.79,32.79,0,0,1-.236,3.711,31.167,31.167,0,0,1-.654,3.764H268.308a27.028,27.028,0,0,0-.471,5.279s0,15.761,9.757,25.405A44.608,44.608,0,0,1,282.493,333.55Zm94.79-33.145a8.49,8.49,0,0,1,1.725-2.717,8.255,8.255,0,0,1,2.616-1.83,8.093,8.093,0,0,1,3.348-.681,8.911,8.911,0,0,1,3.45.654,8.357,8.357,0,0,1,2.721,1.8,8.008,8.008,0,0,1,1.778,2.717,9.077,9.077,0,0,1,.627,3.4,8.523,8.523,0,0,1-.654,3.371,7.862,7.862,0,0,1-1.831,2.668,8.477,8.477,0,0,1-2.745,1.75,8.953,8.953,0,0,1-3.345.625,8.256,8.256,0,0,1-3.295-.651,8.4,8.4,0,0,1-2.641-1.777,7.992,7.992,0,0,1-1.753-2.667,8.731,8.731,0,0,1-.627-3.319A8.928,8.928,0,0,1,377.283,300.405Zm-47.168-5.437H346.8a5.8,5.8,0,0,1,2.589.576,5.111,5.111,0,0,1,1.858,1.461,5.758,5.758,0,0,1,1.072,2.066,9.982,9.982,0,0,1,.338,2.745V307.2H330.115Z" transform="translate(-267.837 -268.296)" fill="#ffcb05"/>
    <path id="Path_11604" data-name="Path 11604" d="M279.167,280.792a5.745,5.745,0,1,0-5.746-5.745A5.755,5.755,0,0,0,279.167,280.792Zm0-7.659a1.915,1.915,0,1,1-1.915,1.914A1.916,1.916,0,0,1,279.167,273.134Z" transform="translate(-265.843 -269.303)" fill="#ffcb05"/>
  </g>
  <g id="Group_16206" data-name="Group 16206" transform="translate(79.094 57.938)">
    <path id="Path_11605" data-name="Path 11605" d="M336.117,332.165h7.651a9.99,9.99,0,1,0,0-19.981l-16.579-.168v6.66l16.579.168a3.33,3.33,0,1,1,0,6.66h-7.651a9.99,9.99,0,1,0,0,19.981h16v-6.66h-16a3.33,3.33,0,1,1,0-6.66Z" transform="translate(-326.122 -312.016)" fill="#ffcb05"/>
    <path id="Path_11606" data-name="Path 11606" d="M368.978,312.016h-6.744v11.468a3.37,3.37,0,0,1-6.74,0V312.016h-6.744V324.33a9.27,9.27,0,0,0,9.271,9.267h4.313l.014.943v10.944h6.632V333.6h2.284v-6.744h-2.284Z" transform="translate(-318.043 -312.016)" fill="#ffcb05"/>
  </g>
  <g id="Group_16207" data-name="Group 16207" transform="translate(84.474 107.421)">
    <path id="Path_11607" data-name="Path 11607" d="M332.8,351.124l-.27,1.009h-.042l-.277-1.009-.8-2.629h-1.329v6.74h1.039v-2.72c0-.709-.106-2.109-.175-2.762h.029l.437,1.565.737,2.13h.68l.742-2.13.449-1.565h.031c-.057.652-.175,2.052-.175,2.762v2.72h1.06v-6.74h-1.329Z" transform="translate(-330.086 -348.495)" fill="#ffcb05"/>
    <path id="Path_11608" data-name="Path 11608" d="M337.216,348.495l-2.185,6.74h1.228l.521-1.822h2.243l.514,1.822h1.277l-2.185-6.74Zm-.164,3.972.235-.815c.2-.711.4-1.476.594-2.222h.041c.185.746.4,1.511.6,2.222l.231.815Z" transform="translate(-328.32 -348.495)" fill="#ffcb05"/>
    <path id="Path_11609" data-name="Path 11609" d="M340.442,349.5h2.124v5.732h1.2V349.5h2.124v-1.008h-5.448Z" transform="translate(-326.388 -348.495)" fill="#ffcb05"/>
    <path id="Path_11610" data-name="Path 11610" d="M349.275,351.656v-.041a1.474,1.474,0,0,0,1.167-1.464c0-1.234-1-1.656-2.392-1.656h-2.093v6.74h2.266c1.489,0,2.566-.631,2.566-1.98C350.789,352.343,350.249,351.822,349.275,351.656Zm-2.125-2.2h.82c.871,0,1.3.231,1.3.845s-.385.969-1.328.969h-.793Zm.95,4.828h-.95v-2.1h.95c1.008,0,1.518.292,1.518,1C349.618,353.938,349.088,354.279,348.1,354.279Z" transform="translate(-324.42 -348.495)" fill="#ffcb05"/>
    <path id="Path_11611" data-name="Path 11611" d="M353.079,348.495l-2.185,6.74h1.228l.521-1.822h2.243l.514,1.822h1.277l-2.185-6.74Zm-.164,3.972.235-.815c.2-.711.4-1.476.594-2.222h.041c.185.746.4,1.511.6,2.222l.231.815Z" transform="translate(-322.657 -348.495)" fill="#ffcb05"/>
    <path id="Path_11612" data-name="Path 11612" d="M361.387,348.495h-1.346l-2.4,3.056h-.035v-3.056h-1.214v6.74h1.214v-1.992l.966-1.212,1.694,3.2H361.6l-2.3-4.121Z" transform="translate(-320.694 -348.495)" fill="#ffcb05"/>
    <path id="Path_11613" data-name="Path 11613" d="M365.374,351.2h-2.306v-2.7h-1.206v6.74h1.206v-2.986h2.306v2.986h1.206v-6.74h-1.206Z" transform="translate(-318.741 -348.495)" fill="#ffcb05"/>
  </g>
  <g id="Group_16208" data-name="Group 16208" transform="translate(0 54.286)">
    <path id="Path_11614" data-name="Path 11614" d="M282.568,333.272l1.962,1.3a24,24,0,0,1,2.064-2.679l-1.76-1.563A26.351,26.351,0,0,0,282.568,333.272Z" transform="translate(-262.578 -301.835)" fill="#fd883a"/>
    <path id="Path_11615" data-name="Path 11615" d="M285.446,330.932l1.612,1.713a23.454,23.454,0,0,1,16.1-6.385v-2.352A25.8,25.8,0,0,0,285.446,330.932Z" transform="translate(-261.55 -304.125)" fill="#fd883a"/>
    <path id="Path_11616" data-name="Path 11616" d="M345.522,353.278a36.723,36.723,0,0,0-29.682-33.651,7.276,7.276,0,1,0-13.242-.042l.018.042c-.22.042-.438.083-.657.136a36.954,36.954,0,0,0-28.031,26.492,27.672,27.672,0,0,0-.945,7.025h-5.146v4.848H273.4l4.226,11.069h62.2l4.849-11.071h56.19v-4.847Zm-36.294-38.811a1.915,1.915,0,1,1-1.913,1.911A1.915,1.915,0,0,1,309.228,314.467Zm27.6,49.882H280.824l-2.42-6.222h4.672v0h56.176Zm-59.2-11.071a31.6,31.6,0,0,1,63.039,0Z" transform="translate(-267.837 -309.323)" fill="#fd883a"/>
  </g>
  <line id="Line_37" data-name="Line 37" x1="5.061" y1="11.071" transform="translate(5.564 103.087)" fill="#f2854d"/>
  <path id="Path_11617" data-name="Path 11617" d="M293.649,316.93c-.22.042-.438.083-.657.136h-.042c.225-.065.451-.123.681-.178Z" transform="translate(-258.871 -252.341)" fill="#f2854d"/>
</svg>
