<svg xmlns="http://www.w3.org/2000/svg" width="50" height="43.824" viewBox="0 0 50 43.824">
  <g id="mesg_count" transform="translate(20.871 -17.094)">
    <g id="Group_342" data-name="Group 342" transform="translate(-20.871 17.094)">
      <path id="Path_6419" data-name="Path 6419" d="M13.7,17.094H-15.217a5.66,5.66,0,0,0-5.654,5.654V48.09a1.466,1.466,0,0,0,2.315,1.193l8.054-5.746A3.943,3.943,0,0,1-8.2,42.8H9.513a5.66,5.66,0,0,0,5.654-5.654V18.559A1.466,1.466,0,0,0,13.7,17.094ZM6.587,34.839H-10.338A1.465,1.465,0,0,1-11.8,33.375a1.465,1.465,0,0,1,1.465-1.465H6.587a1.465,1.465,0,1,1,0,2.93Zm0-6.836H-10.338A1.465,1.465,0,0,1-11.8,26.539a1.465,1.465,0,0,1,1.465-1.465H6.587a1.465,1.465,0,0,1,0,2.93Zm0,0" transform="translate(20.871 -17.094)" fill="#464646"/>
      <path id="Path_6420" data-name="Path 6420" d="M122.394,110.007v25.341a1.466,1.466,0,0,1-2.315,1.192l-8.054-5.745a3.942,3.942,0,0,0-2.3-.736H92.01a5.661,5.661,0,0,1-5.654-5.655v-2.777h16.422a8.594,8.594,0,0,0,8.584-8.584v-8.69h5.378a5.661,5.661,0,0,1,5.654,5.655Zm0,0" transform="translate(-72.394 -92.99)" fill="#464646"/>
    </g>
  </g>
</svg>
