<svg xmlns="http://www.w3.org/2000/svg" width="37.5" height="50" viewBox="0 0 37.5 50">
  <g id="not_count" transform="translate(-64)">
    <path id="Path_6414" data-name="Path 6414" d="M161.563,12.5h15.625a1.563,1.563,0,0,0,1.563-1.562V4.688a1.563,1.563,0,0,0-1.563-1.563h-3.394a4.689,4.689,0,0,0-8.841,0h-3.391A1.563,1.563,0,0,0,160,4.688v6.25A1.563,1.563,0,0,0,161.563,12.5Z" transform="translate(-86.625)" fill="#464646"/>
    <path id="Path_6415" data-name="Path 6415" d="M98.375,64H95.25v4.688a4.693,4.693,0,0,1-4.687,4.688H74.938a4.693,4.693,0,0,1-4.687-4.687V64H67.125A3.13,3.13,0,0,0,64,67.125v37.5a3.091,3.091,0,0,0,3.125,3.125h31.25a3.091,3.091,0,0,0,3.125-3.125v-37.5A3.091,3.091,0,0,0,98.375,64ZM82.294,91.669l-6.25,6.25a1.569,1.569,0,0,1-2.213,0l-3.125-3.125a1.562,1.562,0,0,1,2.209-2.209L74.938,94.6l5.144-5.144a1.563,1.563,0,0,1,2.213,2.209Zm0-12.5-6.25,6.25a1.569,1.569,0,0,1-2.213,0l-3.125-3.125a1.562,1.562,0,0,1,2.209-2.209L74.938,82.1l5.144-5.144a1.563,1.563,0,0,1,2.213,2.209ZM93.688,95.25h-6.25a1.563,1.563,0,1,1,0-3.125h6.25a1.563,1.563,0,0,1,0,3.125Zm0-12.5h-6.25a1.563,1.563,0,1,1,0-3.125h6.25a1.563,1.563,0,0,1,0,3.125Z" transform="translate(0 -57.75)" fill="#464646"/>
  </g>
</svg>
