<svg xmlns="http://www.w3.org/2000/svg" width="35.067" height="32.875" viewBox="0 0 35.067 32.875">
  <g id="shak_count" transform="translate(0 -15.999)">
    <path id="Path_6417" data-name="Path 6417" d="M158.191,106a7.191,7.191,0,1,0,7.191,7.191A7.2,7.2,0,0,0,158.191,106Zm-3.082,4.109a1.027,1.027,0,1,1-1.027,1.027A1.027,1.027,0,0,1,155.109,110.108ZM161.823,117a1.027,1.027,0,0,1-1.453,0,3.085,3.085,0,0,0-4.358,0,1.027,1.027,0,1,1-1.453-1.453,5.142,5.142,0,0,1,7.264,0A1.027,1.027,0,0,1,161.823,117Zm-.55-4.834a1.027,1.027,0,1,1,1.027-1.027A1.027,1.027,0,0,1,161.273,112.163Z" transform="translate(-140.658 -83.836)" fill="#464646"/>
    <path id="Path_6418" data-name="Path 6418" d="M31.985,16H3.082A3.085,3.085,0,0,0,0,19.081V39.628A3.085,3.085,0,0,0,3.082,42.71H6.233v5.137a1.028,1.028,0,0,0,1.754.726l5.863-5.863H31.985a3.085,3.085,0,0,0,3.082-3.082V19.081A3.085,3.085,0,0,0,31.985,16ZM17.533,38.6a9.246,9.246,0,1,1,9.246-9.246A9.256,9.256,0,0,1,17.533,38.6Z" fill="#464646"/>
  </g>
</svg>
