<svg xmlns="http://www.w3.org/2000/svg" width="50" height="42.414" viewBox="0 0 50 42.414">
  <g id="user_count" transform="translate(0 -38.842)">
    <path id="Path_6423" data-name="Path 6423" d="M402.361,273.322h-3.867a10.059,10.059,0,0,1,.609,3.457v14.614a4.31,4.31,0,0,1-.248,1.444h6.393a4.336,4.336,0,0,0,4.331-4.331V280.54A7.226,7.226,0,0,0,402.361,273.322Z" transform="translate(-359.578 -211.582)" fill="#464646"/>
    <path id="Path_6424" data-name="Path 6424" d="M10.475,291.395V276.78a10.058,10.058,0,0,1,.609-3.457H7.218A7.226,7.226,0,0,0,0,280.541v7.967a4.336,4.336,0,0,0,4.331,4.331h6.393A4.311,4.311,0,0,1,10.475,291.395Z" transform="translate(0 -211.582)" fill="#464646"/>
    <path id="Path_6425" data-name="Path 6425" d="M138.273,258.093h20.389a1.444,1.444,0,0,0,1.444-1.444V242.035a7.226,7.226,0,0,0-7.218-7.218h-8.84a7.226,7.226,0,0,0-7.218,7.218v14.614A1.444,1.444,0,0,0,138.273,258.093Z" transform="translate(-123.467 -176.837)" fill="#464646"/>
    <path id="Path_6426" data-name="Path 6426" d="M180.036,55.093a8.664,8.664,0,1,0-4.242,1.11A8.686,8.686,0,0,0,180.036,55.093Z" transform="translate(-150.794)" fill="#464646"/>
    <path id="Path_6427" data-name="Path 6427" d="M45.663,131.232a6.492,6.492,0,1,0-3.171,2.916A6.532,6.532,0,0,0,45.663,131.232Z" transform="translate(-30.177 -74.758)" fill="#464646"/>
    <path id="Path_6428" data-name="Path 6428" d="M349.541,134.147a6.5,6.5,0,1,0-3.171-2.916A6.531,6.531,0,0,0,349.541,134.147Z" transform="translate(-311.856 -74.757)" fill="#464646"/>
  </g>
</svg>
